<?xml version="1.0" standalone="no"?>
<!DOCTYPE svg PUBLIC "-//W3C//DTD SVG 20010904//EN"
 "http://www.w3.org/TR/2001/REC-SVG-20010904/DTD/svg10.dtd">
<svg version="1.0" xmlns="http://www.w3.org/2000/svg"
 width="640.000000pt" height="640.000000pt" viewBox="0 0 640.000000 640.000000"
 preserveAspectRatio="xMidYMid meet">

<g transform="translate(0.000000,640.000000) scale(0.100000,-0.100000)"
fill="#000000" stroke="none">
<path d="M3000 5474 c-312 -35 -491 -88 -852 -254 -243 -112 -436 -247 -609
-426 -202 -211 -392 -504 -464 -718 -29 -87 -31 -114 -9 -123 23 -9 38 13 69
97 50 136 77 190 95 190 9 0 45 -12 80 -26 35 -14 131 -41 213 -60 82 -19 154
-37 160 -41 9 -6 6 -66 -9 -185 -6 -46 -6 -48 18 -48 22 0 26 7 40 73 9 39 24
89 32 110 15 35 19 37 59 37 44 -1 129 -11 231 -29 33 -6 150 -17 260 -26 111
-8 215 -18 233 -20 l32 -6 -6 -80 -6 -81 24 4 c21 3 25 11 37 73 7 39 13 75
14 81 1 7 16 8 47 2 25 -5 228 -8 451 -8 399 1 490 4 622 16 91 9 111 -4 128
-85 13 -64 30 -87 55 -77 13 5 14 19 9 86 -6 74 -6 80 12 80 40 0 417 30 583
47 l174 17 18 -22 c9 -12 25 -55 34 -95 31 -138 34 -147 57 -147 19 0 20 4 13
68 -3 37 -11 85 -16 107 -10 45 -12 105 -3 105 30 0 152 24 162 32 7 6 15 8
18 6 3 -3 64 10 137 28 l132 34 22 -26 c12 -15 29 -52 38 -83 28 -95 32 -101
64 -101 17 0 31 6 35 16 8 21 -28 119 -66 179 -17 28 -51 86 -75 129 -168 300
-399 551 -698 758 -245 170 -559 293 -930 364 -124 24 -167 27 -385 29 -135 2
-261 1 -280 -1z m815 -114 c214 -52 421 -131 582 -220 98 -54 173 -106 173
-119 0 -24 -46 -49 -152 -84 -129 -42 -144 -44 -157 -19 -5 9 -54 61 -108 114
-138 137 -226 201 -400 293 -141 74 -126 82 62 35z m-1015 7 c0 -7 -21 -23
-47 -36 -121 -59 -280 -176 -457 -338 -80 -74 -83 -74 -236 -35 -114 29 -126
41 -96 88 29 44 386 211 621 290 131 44 215 56 215 31z m535 -6 c94 -42 249
-254 327 -444 34 -84 35 -103 6 -118 -27 -15 -706 -19 -799 -6 l-57 8 14 60
c31 134 129 309 228 411 98 99 193 129 281 89z m-291 0 c3 -4 -26 -50 -64
-101 -85 -111 -129 -189 -181 -317 -61 -150 -43 -143 -265 -100 -205 40 -227
49 -204 92 30 57 244 228 386 309 146 83 312 143 328 117z m519 -17 c185 -48
527 -278 588 -396 24 -46 24 -75 2 -82 -41 -12 -292 -55 -343 -58 l-54 -3 -31
85 c-43 118 -126 273 -202 375 -34 47 -63 87 -63 90 0 9 42 5 103 -11z m-1571
-430 c68 -20 129 -42 136 -49 18 -16 10 -32 -72 -145 -92 -126 -136 -200 -220
-368 -42 -83 -84 -155 -93 -160 -17 -9 -113 2 -268 29 -68 12 -172 58 -200 88
-17 20 -17 22 10 63 111 168 310 400 439 509 97 83 98 83 268 33z m2698 18 c0
25 240 -213 339 -337 101 -126 221 -297 221 -314 0 -16 -48 -35 -142 -57 -42
-9 -75 -21 -73 -25 3 -4 -3 -5 -12 -3 -10 3 -58 -2 -107 -11 -154 -26 -146
-30 -201 80 -27 52 -52 95 -57 95 -5 0 -6 5 -3 10 3 6 1 10 -4 10 -6 0 -11 6
-11 14 0 8 -5 16 -10 18 -6 2 -12 13 -14 24 -5 26 -81 148 -182 296 -41 59
-74 111 -74 116 0 15 55 32 305 96 6 2 13 -2 17 -8 4 -6 8 -8 8 -4z m-2210
-138 c234 -46 230 -45 230 -88 0 -50 -95 -525 -115 -574 -11 -28 -25 -44 -40
-48 -20 -5 -138 2 -355 21 -56 4 -290 34 -310 39 -8 2 -27 7 -42 10 -18 4 -28
13 -28 24 0 36 156 330 235 442 110 158 161 210 206 210 19 0 117 -16 219 -36z
m1846 -26 c61 -63 109 -128 193 -263 35 -55 67 -102 72 -103 5 -2 7 -8 3 -13
-3 -5 2 -12 10 -15 9 -3 14 -10 11 -14 -3 -4 2 -11 11 -14 9 -3 14 -12 11 -19
-3 -7 6 -38 19 -67 30 -71 30 -98 2 -109 -50 -18 -482 -61 -620 -61 -109 0
-107 -2 -144 175 -14 72 -45 205 -68 297 -24 92 -40 171 -37 175 3 5 85 21
181 37 96 16 186 33 200 37 14 4 43 8 65 8 36 1 46 -5 91 -51z m-619 -51 c32
-21 69 -148 123 -422 24 -123 27 -154 17 -174 -13 -28 -85 -73 -101 -64 -5 4
-244 8 -530 9 -514 3 -569 4 -561 13 3 2 0 10 -6 17 -7 8 -7 14 1 19 5 3 10
16 10 28 0 41 112 542 127 567 l14 25 447 -5 c246 -3 452 -9 459 -13z"/>
<path d="M890 3834 c0 -5 -19 -10 -43 -10 -62 -2 -164 -53 -219 -110 -69 -71
-100 -153 -103 -274 -2 -52 -7 -183 -10 -290 -8 -216 2 -324 35 -414 55 -146
178 -227 365 -240 214 -15 387 63 457 206 51 104 60 186 55 510 -4 308 -7 330
-56 425 -43 86 -161 167 -271 188 -65 11 -210 18 -210 9z m151 -201 c15 -3 46
-21 68 -40 69 -58 76 -98 76 -433 0 -305 -4 -333 -52 -398 -36 -48 -74 -63
-162 -65 -93 -2 -143 20 -184 81 l-28 41 -9 293 c-6 185 -5 294 1 296 5 2 9
10 9 18 0 9 -5 12 -10 9 -6 -3 0 23 13 59 37 100 67 125 182 150 19 4 28 3 96
-11z m-304 -500 c-3 -10 -5 -2 -5 17 0 19 2 27 5 18 2 -10 2 -26 0 -35z"/>
<path d="M5247 3823 c-4 -3 -7 -300 -7 -660 0 -578 2 -654 15 -660 9 -3 59 -1
113 3 l97 9 3 248 c1 140 6 247 11 247 15 0 45 -47 102 -160 29 -58 57 -108
63 -112 6 -4 7 -8 2 -8 -5 0 -2 -8 6 -17 8 -10 30 -49 49 -86 59 -118 64 -121
163 -126 58 -2 91 1 101 9 8 7 15 8 15 3 0 -5 7 -10 15 -10 8 0 15 3 15 7 0 7
-186 325 -273 467 -31 51 -57 98 -57 105 1 19 36 72 119 183 40 54 85 116 100
139 14 23 39 58 55 79 17 22 26 43 22 53 -5 14 -9 14 -23 3 -9 -8 -19 -12 -22
-11 -34 20 -50 23 -108 16 l-65 -7 -45 -60 c-24 -34 -50 -75 -57 -92 -7 -17
-20 -37 -27 -45 -8 -8 -34 -49 -58 -90 -25 -41 -48 -77 -53 -78 -4 -2 -6 -7
-4 -11 8 -12 -28 -9 -36 3 -4 6 -8 158 -8 339 l0 327 -108 0 c-60 0 -112 -3
-115 -7z"/>
<path d="M4620 3546 c-121 -27 -164 -51 -225 -127 -63 -79 -75 -140 -75 -388
0 -148 4 -232 14 -266 52 -197 224 -300 445 -267 72 10 114 26 203 78 40 24
79 93 100 179 26 104 26 105 -85 105 -82 0 -117 -11 -117 -36 0 -8 -9 -37 -21
-63 -16 -38 -29 -52 -60 -66 -100 -46 -220 9 -248 112 -15 53 -13 333 3 421 7
39 21 81 31 92 29 32 98 53 155 48 62 -6 92 -31 129 -108 l26 -55 100 0 100 0
-2 55 c-4 86 -53 175 -124 222 -89 59 -241 87 -349 64z"/>
<path d="M2846 3534 c-26 -7 -56 -20 -65 -29 -10 -8 -21 -15 -25 -15 -5 0 -21
-11 -38 -25 -16 -14 -33 -25 -38 -25 -5 0 -10 21 -12 48 l-3 47 -104 3 c-57 1
-108 -1 -113 -6 -4 -4 -8 -235 -9 -511 0 -409 2 -505 13 -512 15 -10 168 -12
192 -3 14 5 16 38 17 258 1 338 9 461 35 511 41 80 137 114 223 79 60 -25 85
-72 86 -164 0 -36 1 -200 3 -366 l2 -300 84 -12 c87 -11 122 -8 128 11 2 7 1
197 -2 422 -5 445 -3 426 -63 507 -61 82 -188 116 -311 82z"/>
<path d="M3630 3535 c-77 -22 -134 -58 -174 -111 -38 -50 -69 -131 -64 -166 3
-22 8 -23 93 -26 118 -4 128 0 150 49 26 57 81 92 148 94 65 3 122 -32 134
-80 27 -117 1 -155 -117 -170 -89 -11 -239 -53 -292 -82 -100 -55 -139 -124
-139 -248 0 -50 6 -77 30 -129 37 -78 68 -109 141 -144 111 -53 248 -28 349
63 23 21 44 35 48 31 3 -3 5 -26 5 -51 -2 -35 2 -46 17 -55 28 -14 174 -13
192 3 12 10 13 72 9 412 -5 386 -6 402 -27 445 -24 50 -57 89 -96 114 -80 53
-301 80 -407 51z m290 -546 c7 -11 13 -55 15 -97 2 -43 0 -68 -4 -57 -6 15 -9
10 -15 -24 -22 -138 -237 -192 -306 -78 -23 37 -25 64 -9 118 22 72 66 101
217 139 19 4 36 11 39 14 14 14 53 5 63 -15z"/>
<path d="M1520 3530 c0 -16 51 -114 61 -118 5 -2 9 -9 9 -15 0 -13 97 -187
157 -280 23 -37 43 -72 43 -77 0 -6 -17 -36 -39 -68 -21 -31 -78 -131 -126
-222 -48 -91 -96 -180 -106 -199 -10 -19 -16 -38 -13 -43 6 -10 185 -11 201 0
18 11 188 356 185 373 -1 4 7 5 18 2 18 -5 40 -41 55 -90 3 -13 10 -23 15 -23
8 0 23 -38 21 -52 -1 -5 4 -8 9 -8 6 0 10 -5 10 -12 0 -25 81 -178 99 -188 24
-12 190 -13 209 -1 11 6 -1 37 -52 140 -64 129 -185 340 -213 372 -19 23 -16
44 10 76 53 63 237 399 237 431 0 12 -20 14 -106 10 -89 -3 -108 -7 -120 -22
-7 -11 -11 -23 -8 -27 3 -5 0 -9 -6 -9 -6 0 -8 -4 -5 -10 3 -5 1 -10 -5 -10
-6 0 -8 -4 -5 -10 3 -5 2 -10 -4 -10 -6 0 -13 -16 -17 -35 -3 -19 -12 -39 -19
-45 -8 -6 -12 -17 -9 -24 3 -8 -2 -21 -11 -29 -9 -9 -15 -18 -15 -19 6 -17
-38 -78 -55 -78 -11 0 -47 64 -60 108 -17 58 -95 210 -110 216 -28 10 -235 7
-235 -4z"/>
<path d="M1630 2308 c1 -23 6 -39 49 -145 11 -29 17 -54 13 -57 -5 -3 -72 -19
-149 -36 -78 -17 -174 -42 -214 -55 -40 -14 -81 -25 -91 -25 -23 0 -65 83
-114 224 -33 95 -39 106 -60 106 -19 0 -24 -5 -24 -24 0 -40 68 -224 126 -340
59 -118 159 -276 175 -276 6 0 8 -4 5 -8 -8 -14 123 -173 234 -284 274 -271
666 -496 1026 -587 248 -62 337 -74 611 -79 145 -2 271 -1 280 3 10 5 25 7 33
6 31 -3 249 39 371 73 69 19 172 53 230 76 156 62 404 196 455 247 11 10 46
36 79 58 107 71 435 410 444 460 2 6 9 14 17 18 8 4 14 15 14 22 0 8 4 15 9
15 16 0 110 151 170 273 66 136 108 252 113 312 3 36 0 40 -21 43 -13 2 -27 0
-33 -6 -5 -5 -22 -59 -38 -121 -32 -123 -86 -237 -110 -234 -8 1 -40 10 -70
21 -30 11 -120 34 -199 51 -79 17 -149 36 -157 42 -19 16 -18 35 11 117 34 98
33 122 -3 122 -28 0 -30 -3 -52 -87 -14 -53 -32 -95 -45 -109 -13 -13 -20 -26
-17 -29 4 -3 0 -4 -8 -1 -8 3 -94 12 -190 21 -489 43 -548 53 -551 92 -1 10
-2 41 -3 68 -1 43 -4 50 -21 50 -15 0 -24 -13 -38 -55 -9 -30 -24 -61 -32 -69
-12 -12 -104 -15 -629 -15 -607 -1 -615 -1 -620 19 -3 11 -6 34 -6 50 0 54
-11 75 -36 75 -23 0 -24 -3 -24 -69 0 -39 -5 -73 -10 -76 -6 -4 -148 -17 -317
-31 -168 -13 -334 -29 -367 -34 -58 -10 -62 -9 -82 14 -17 20 -58 114 -80 184
-2 6 -15 12 -29 12 -19 0 -25 -5 -25 -22z m2045 -189 c144 -12 169 -22 173
-66 7 -72 -94 -543 -122 -572 -15 -14 -62 -16 -444 -18 -235 -1 -439 -4 -454
-7 -16 -2 -28 0 -28 5 0 6 -4 8 -9 5 -4 -3 -13 11 -19 32 -6 20 -24 84 -41
142 -45 153 -101 399 -101 443 0 22 5 38 13 38 6 1 120 5 252 9 276 9 606 4
780 -11z m-1084 -140 c36 -164 120 -483 129 -489 9 -6 -6 -50 -17 -50 -42 -1
-301 -34 -382 -49 -66 -12 -113 -16 -127 -11 -83 32 -403 615 -368 672 3 4 16
8 30 8 13 0 24 4 24 8 0 5 15 8 33 8 17 0 102 6 187 13 241 19 423 27 444 21
16 -5 25 -31 47 -131z m1730 97 c157 -14 298 -28 312 -32 43 -10 36 -55 -31
-185 -116 -230 -252 -429 -328 -482 l-41 -29 -144 36 c-79 19 -177 40 -216 46
-70 11 -73 13 -73 39 0 15 15 95 34 177 18 82 43 208 56 279 12 72 24 140 26
153 4 20 10 22 62 22 31 0 186 -11 343 -24z m-2557 -81 c10 -22 22 -41 27 -43
5 -2 9 -13 9 -23 0 -46 235 -478 253 -464 4 3 5 2 2 -1 -2 -4 9 -25 25 -47 51
-69 44 -76 -108 -107 -56 -11 -113 -25 -127 -32 -35 -16 -76 14 -220 157 -201
201 -358 419 -341 473 5 16 106 72 129 72 3 0 18 5 34 11 15 7 37 13 48 15 11
2 54 10 95 18 41 8 93 14 115 13 36 -2 42 -6 59 -42z m3123 5 c133 -26 259
-66 285 -92 13 -13 17 -26 12 -41 -11 -40 -73 -144 -135 -229 -68 -92 -275
-300 -347 -348 -54 -35 -62 -35 -222 7 -99 26 -130 38 -130 52 0 4 22 37 49
73 27 35 65 89 84 119 58 91 222 382 237 419 17 44 29 60 46 60 7 0 62 -9 121
-20z m-1209 -609 c18 -9 19 -16 11 -53 -5 -24 -38 -101 -73 -173 -100 -203
-224 -324 -348 -341 -57 -8 -96 10 -172 77 -74 66 -130 146 -206 294 -66 129
-77 167 -54 186 9 7 66 16 132 20 162 10 686 3 710 -10z m287 -32 c130 -22
215 -46 215 -60 0 -48 -187 -230 -325 -317 -67 -42 -205 -105 -284 -131 -62
-20 -121 -28 -121 -15 0 3 23 31 51 62 27 32 66 81 86 110 42 64 136 251 153
307 22 71 25 74 72 68 24 -2 93 -13 153 -24z m-1254 11 c39 -11 79 -50 79 -78
0 -30 109 -231 175 -325 36 -49 65 -96 65 -103 0 -56 -213 11 -377 119 -132
86 -393 321 -377 337 12 12 91 28 224 45 133 16 167 17 211 5z m-500 -100 c22
-12 70 -52 107 -89 96 -99 261 -227 380 -296 68 -40 97 -61 84 -63 -28 -4
-243 52 -335 88 -196 76 -545 280 -534 313 3 11 193 65 235 66 12 1 41 -8 63
-19z m2229 -20 c89 -24 130 -40 130 -49 0 -26 -120 -106 -276 -184 -167 -84
-463 -186 -580 -202 -48 -6 -49 -6 -27 12 12 10 73 46 135 81 93 51 144 89
276 206 88 79 167 146 174 149 28 12 97 6 168 -13z"/>
</g>
</svg>
