<svg width="13" height="16" viewBox="0 0 13 16" fill="none" xmlns="http://www.w3.org/2000/svg">
<path d="M10.8691 11.4371L8.33749 10.1635C8.09872 10.0432 7.95031 9.8016 7.95031 9.5328V8.6312C8.011 8.55653 8.07487 8.47147 8.14085 8.3776C8.4692 7.91093 8.73236 7.39147 8.92369 6.8312C9.29762 6.65867 9.54037 6.28667 9.54037 5.86667V4.8C9.54037 4.5432 9.44497 4.2944 9.27536 4.1V2.6816C9.2902 2.53493 9.34851 1.66187 8.72096 0.9416C8.17663 0.3168 7.29335 0 6.09524 0C4.89713 0 4.01385 0.3168 3.46952 0.941333C2.84197 1.6616 2.90027 2.53493 2.91511 2.6816V4.1C2.74551 4.2944 2.6501 4.5432 2.6501 4.8V5.86667C2.6501 6.1912 2.79665 6.49387 3.04682 6.69573C3.28957 7.66293 3.7976 8.39173 3.97516 8.6256V9.508C3.97516 9.76613 3.83523 10.0029 3.61024 10.1267L1.24608 11.4243C0.477284 11.8464 0 12.6555 0 13.5365V14.4C0 15.6656 3.98708 16 6.09524 16C8.2034 16 12.1905 15.6656 12.1905 14.4V13.5885C12.1905 12.6717 11.684 11.8472 10.8691 11.4371Z" fill="white"/>
</svg>
