<svg width="391" height="641" viewBox="0 0 391 641" fill="none" xmlns="http://www.w3.org/2000/svg">
<path d="M-360 430.732C-347.476 387.238 -300.125 346.01 -254.981 343.23C-209.839 340.447 -158.411 369.242 -117.041 350.947C-79.3382 334.272 -69.5166 260.524 -29.4431 250.861C12.0695 240.851 74.1259 299.506 116.355 293.171C176.554 284.136 214.532 224.836 240.854 169.902C267.174 114.969 294.946 53.3293 350.993 29.5499C393.298 11.6024 442.221 20.2056 485.426 35.8559C528.631 51.5063 569.606 73.9212 614.45 83.9422C659.294 93.9611 711.131 89.1331 743.671 56.6659C789.341 11.1038 781.241 -87.337 839.796 -114.362C894.531 -139.626 953.598 -84.3053 1018.53 -97.6007C1067.37 -107.599 1074.29 -222.327 1120.61 -265.846C1146.55 -290.217 1199.39 -291.326 1231.21 -275.395M-341.525 437.136C-329.112 394.029 -282.184 353.168 -237.444 350.413C-192.704 347.657 -141.735 376.193 -100.736 358.063C-63.3693 341.536 -53.6344 268.448 -13.9189 258.87C27.2222 248.949 88.7248 307.081 130.575 300.802C190.239 291.851 227.879 233.076 253.963 178.632C280.05 124.191 307.573 63.1011 363.119 39.5354C405.045 21.7481 453.53 30.2756 496.351 45.7858C539.169 61.2981 579.778 83.5105 624.22 93.4425C668.664 103.372 720.04 98.5888 752.29 66.4088C797.55 21.254 789.521 -76.3098 847.556 -103.092C901.802 -128.129 960.342 -73.3026 1024.7 -86.48C1073.1 -96.3898 1079.96 -210.091 1125.86 -253.225C1151.57 -277.378 1203.94 -278.476 1235.47 -262.687M-323.051 443.538C-310.75 400.821 -264.244 360.329 -219.909 357.598C-175.572 354.864 -125.061 383.147 -84.4314 365.177C-47.4003 348.799 -37.7545 276.37 1.60293 266.879C42.3749 257.047 103.324 314.656 144.796 308.432C203.921 299.559 241.221 241.316 267.074 187.365C292.927 133.413 320.203 72.8706 375.245 49.5186C416.795 31.8894 464.844 40.3412 507.278 55.7111C549.713 71.0832 589.954 93.0952 633.997 102.938C678.043 112.779 728.952 108.038 760.915 76.1516C805.766 31.4019 797.81 -65.2827 855.318 -91.8244C909.077 -116.634 967.09 -62.3022 1030.86 -75.3616C1078.83 -85.1823 1085.63 -197.858 1131.12 -240.604C1156.59 -264.537 1208.49 -265.628 1239.74 -249.98M-304.578 449.94C-292.39 407.607 -246.307 367.487 -202.372 364.781C-158.44 362.072 -108.389 390.096 -68.1288 372.289C-31.4336 356.062 -21.8767 284.29 17.1248 274.885C57.5254 265.14 117.918 322.228 159.015 316.058C217.604 307.27 254.566 249.554 280.181 196.092C305.796 142.631 332.825 82.6423 387.366 59.5018C428.538 42.0329 476.152 50.4067 518.198 65.6386C560.247 80.8705 600.122 102.687 643.765 112.436C687.409 122.186 737.858 117.489 769.526 85.8899C813.97 41.5476 806.088 -54.2555 863.078 -80.5569C916.345 -105.142 973.831 -51.304 1037.02 -64.2432C1084.55 -73.9748 1091.29 -185.629 1136.37 -227.983C1161.61 -251.7 1213.04 -252.78 1244 -237.276M-286.103 456.341C-274.026 414.399 -228.365 374.646 -184.835 371.964C-141.306 369.282 -91.713 397.048 -51.8218 379.405C-15.4625 363.327 -5.99454 292.212 32.6489 282.896C72.678 273.243 132.519 329.803 173.238 323.693C231.289 314.983 267.913 257.797 293.292 204.829C318.673 151.857 345.453 92.4185 399.496 69.4894C440.29 52.183 487.466 60.479 529.129 75.5707C570.791 90.6601 610.3 112.276 653.543 121.936C696.785 131.599 746.772 126.942 778.149 95.6372C822.184 51.7022 814.375 -43.2239 870.838 -69.2849C923.62 -93.643 980.579 -40.3013 1043.19 -53.1203C1090.28 -62.7629 1096.96 -173.391 1141.62 -215.358C1166.64 -238.857 1217.59 -239.925 1248.27 -224.564M-267.629 462.743C-255.666 421.19 -210.428 381.805 -167.301 379.147C-124.174 376.489 -75.039 403.997 -35.517 386.519C0.504262 370.59 9.88543 300.134 48.1708 290.903C87.8285 281.338 147.116 337.378 187.459 331.323C244.969 322.691 281.253 266.037 306.4 213.557C331.546 161.079 358.079 102.193 411.622 79.4727C452.038 62.3265 498.779 70.5445 540.054 85.5004C581.331 100.45 620.475 121.863 663.317 131.437C706.16 141.01 755.684 136.398 786.772 105.38C830.4 61.8501 822.662 -32.1945 878.604 -58.0129C930.895 -82.1484 987.324 -29.2986 1049.36 -42.0019C1096.02 -51.5533 1102.63 -161.157 1146.88 -202.735C1171.66 -226.018 1222.14 -227.077 1252.54 -211.857M-249.154 469.145C-237.302 427.981 -192.486 388.963 -149.764 386.33C-107.039 383.697 -58.3651 410.948 -19.2123 393.633C16.4732 377.851 25.7676 308.056 63.695 298.907C102.983 289.434 161.715 344.95 201.679 338.951C258.654 330.402 294.597 274.275 319.509 222.287C344.419 170.299 370.705 111.96 423.745 89.4537C463.783 72.4655 510.087 80.6101 550.977 95.4213C591.869 110.235 630.646 131.45 673.088 140.932C715.53 150.415 764.591 145.845 795.386 115.118C838.606 71.9958 830.94 -21.1718 886.36 -46.7498C938.163 -70.6582 994.066 -18.3026 1055.52 -30.8857C1101.74 -40.3503 1108.29 -148.928 1152.13 -190.118C1176.68 -213.183 1226.69 -214.232 1256.8 -199.156M-230.681 475.549C-218.94 434.772 -174.547 396.122 -132.227 393.515C-89.9048 390.904 -41.6911 417.9 -2.90751 400.749C32.4399 385.117 41.6476 315.976 79.2169 306.918C118.134 297.534 176.312 352.523 215.902 346.582C272.339 338.112 307.944 282.518 332.62 231.019C357.297 179.518 383.334 121.729 435.876 99.4391C475.536 82.6112 521.401 90.6779 561.908 105.353C602.413 120.024 640.823 141.037 682.865 150.43C724.907 159.826 773.505 155.298 804.013 124.861C846.824 82.1482 839.234 -10.1425 894.131 -35.4778C945.443 -59.1614 1000.82 -7.29997 1061.69 -19.7606C1107.48 -29.1384 1113.97 -136.692 1157.39 -177.491C1181.71 -200.338 1231.25 -201.379 1261.08 -186.443M-212.205 481.95C-200.575 441.561 -156.607 403.28 -114.69 400.698C-72.7705 398.114 -25.0149 424.851 13.3995 407.863C48.4088 392.38 57.5276 323.9 94.7388 314.927C133.287 305.632 190.91 360.098 230.123 354.212C286.023 345.823 321.289 290.758 345.729 239.749C370.17 188.74 395.958 131.503 447.999 109.422C487.281 92.7569 532.71 100.748 572.83 115.279C612.948 129.812 650.996 150.626 692.635 159.93C734.279 169.235 782.41 164.752 812.627 134.604C855.031 92.2961 847.514 0.886906 901.886 -24.2102C952.713 -47.6669 1007.56 3.70269 1067.85 -8.64665C1113.2 -17.9309 1119.63 -124.461 1162.64 -164.874C1186.72 -187.503 1235.79 -188.533 1265.34 -173.74M-193.732 488.352C-182.213 448.353 -138.668 410.439 -97.1531 407.881C-55.6384 405.324 -8.34317 431.803 29.702 414.977C64.3755 399.643 73.4075 331.822 110.263 322.936C148.439 313.727 205.509 367.67 244.344 361.843C299.706 353.536 334.633 298.999 358.838 248.479C383.043 197.96 408.584 141.273 460.125 119.405C499.029 102.9 544.022 110.813 583.755 125.204C623.488 139.599 661.169 160.213 702.41 169.426C743.651 178.639 791.325 174.201 821.25 144.342C863.247 102.44 855.799 11.9096 909.65 -12.9449C959.986 -36.1767 1014.31 14.6987 1074.02 2.4718C1118.93 -6.72565 1125.3 -112.227 1167.9 -152.256C1191.75 -174.666 1240.35 -175.686 1269.6 -161.035M-175.256 494.754C-163.851 455.142 -120.726 417.597 -79.6162 415.064C-38.504 412.529 8.33304 438.754 46.0068 422.091C80.3445 406.906 89.2898 339.742 125.785 330.943C163.592 321.825 220.108 375.245 258.565 369.475C313.389 361.246 347.978 307.241 371.947 257.212C395.916 207.184 421.21 151.049 472.253 129.391C510.778 113.046 555.334 120.884 594.682 135.136C634.031 149.389 671.346 169.8 712.185 178.926C753.026 188.052 800.234 183.654 829.87 154.087C871.458 112.592 864.083 22.9412 917.41 -1.67291C967.259 -24.6777 1021.05 25.7036 1080.19 13.5924C1124.66 4.48619 1130.97 -99.9958 1173.15 -139.63C1196.78 -161.825 1244.9 -162.835 1273.88 -148.327M-156.783 501.156C-145.489 461.933 -102.789 424.756 -62.0793 422.247C-21.3719 419.739 25.007 445.706 62.3116 429.208C96.3134 414.169 105.17 347.666 141.309 338.951C178.742 329.923 234.705 382.82 272.786 377.106C327.071 368.959 361.322 315.481 385.055 265.946C408.789 216.411 433.836 160.821 484.376 139.379C522.524 123.194 566.643 130.953 605.609 145.068C644.568 159.18 681.517 179.394 721.958 188.429C762.398 197.464 809.144 193.112 838.489 163.832C879.672 122.744 872.366 33.9706 925.174 9.60136C974.531 -13.1786 1027.8 36.7063 1086.35 24.7175C1130.39 15.6981 1136.63 -87.7577 1178.41 -127.005C1201.8 -148.981 1249.45 -149.981 1278.14 -135.615M-138.31 507.557C-127.129 468.724 -84.8495 431.914 -44.5446 429.43C-4.23972 426.948 41.6788 452.655 78.6164 436.322C112.28 421.435 121.05 355.586 156.829 346.96C193.893 338.021 249.302 390.394 287.004 384.736C340.754 376.672 374.664 323.724 398.164 274.676C421.664 225.63 446.462 170.593 496.502 149.364C534.271 133.337 577.955 141.019 616.531 154.993C655.108 168.965 691.69 188.981 731.73 197.927C771.77 206.873 818.054 202.563 847.107 173.575C887.881 132.894 880.648 44.9978 932.932 20.8689C981.802 -1.6862 1034.54 47.7067 1092.52 35.836C1136.12 26.9078 1142.3 -75.5241 1183.66 -114.384C1206.82 -136.14 1254 -137.133 1282.4 -122.909M-119.837 513.961C-108.765 475.515 -66.9122 439.073 -27.0077 436.615C12.8946 434.156 58.3527 459.607 94.9211 443.436C128.247 428.696 136.93 363.508 172.353 354.967C209.046 346.117 263.898 397.965 301.225 392.364C354.436 384.38 388.007 331.962 411.271 283.406C434.535 234.85 459.086 180.364 508.623 159.347C546.017 143.481 589.264 151.087 627.454 164.921C665.644 178.755 701.861 198.568 741.501 207.425C781.138 216.281 826.959 212.014 855.723 183.316C896.088 143.042 888.931 56.0272 940.687 32.1387C989.07 9.8106 1041.28 58.7094 1098.68 46.9544C1141.84 38.1153 1147.96 -63.2927 1188.91 -101.763C1211.83 -123.305 1258.54 -124.285 1286.66 -110.204M-101.361 520.363C-90.403 482.304 -48.9705 446.231 -9.47076 443.798C30.029 441.365 75.0289 466.561 111.226 450.55C144.216 435.961 152.81 371.432 187.875 362.976C224.198 354.217 278.497 405.539 315.446 399.997C368.121 392.09 401.351 340.202 424.382 292.136C447.412 244.07 471.712 190.136 520.751 169.33C557.769 153.624 600.578 161.152 638.379 174.848C676.188 188.542 712.036 208.157 751.275 216.923C790.517 225.688 835.873 221.466 864.346 193.056C904.306 153.19 897.218 67.0543 948.452 43.4063C996.345 21.303 1048.03 69.7076 1104.85 58.075C1147.58 49.3227 1153.63 -51.0591 1194.16 -89.1422C1216.86 -110.464 1263.1 -111.437 1290.93 -97.496M-82.8878 526.765C-72.041 489.096 -31.0311 453.39 8.06614 450.981C47.1611 448.573 91.7029 473.51 127.531 457.664C160.185 443.224 168.69 379.352 203.396 370.984C239.349 362.315 293.094 413.116 329.667 407.627C381.801 399.803 414.694 348.443 437.49 300.868C460.285 253.294 484.341 199.908 532.877 179.316C569.517 163.772 611.885 171.225 649.308 184.776C686.726 198.332 722.211 217.746 761.048 226.423C799.89 235.099 844.781 230.919 872.964 202.801C912.515 163.34 905.5 78.0837 956.214 54.676C1003.62 32.7998 1054.77 80.708 1111.01 69.1934C1153.31 60.5324 1159.3 -38.8256 1199.42 -76.5191C1221.88 -97.6252 1267.65 -98.5867 1295.2 -84.7906M-64.4124 533.166C-53.6789 495.885 -13.0916 460.548 25.603 458.164C64.2955 455.783 108.377 480.461 143.835 464.78C176.154 450.487 184.572 387.276 218.921 378.993C254.501 370.415 307.693 420.689 343.888 415.258C395.486 407.514 428.04 356.685 450.599 309.603C473.162 262.516 496.967 209.679 545.003 189.299C581.264 173.916 623.199 181.288 660.233 194.706C697.264 208.119 732.384 227.331 770.825 235.921C809.262 244.508 853.695 240.37 881.585 212.542C920.729 173.488 913.787 89.1109 963.978 65.9481C1010.89 44.2944 1061.52 91.7107 1117.18 80.314C1159.04 71.7421 1164.97 -26.5919 1204.68 -63.8959C1226.91 -84.7839 1272.2 -85.7366 1299.47 -72.0806M-45.9391 539.568C-35.3169 502.676 4.84788 467.707 43.1377 465.347C81.4298 462.988 125.051 487.411 160.14 471.892C192.123 457.748 200.452 395.196 234.445 386.998C269.652 378.508 322.289 428.259 358.111 422.884C409.173 415.222 441.387 364.921 463.712 318.326C486.035 271.731 509.595 219.447 557.133 199.28C593.016 184.055 634.513 191.351 671.162 204.629C707.81 217.904 742.564 236.916 780.6 245.414C818.636 253.913 862.607 249.819 890.207 222.278C928.942 183.632 922.072 100.131 971.74 77.2089C1018.17 55.7823 1068.27 102.704 1123.34 91.428C1164.77 82.9451 1170.64 -14.365 1209.93 -51.2795C1231.93 -71.9515 1276.75 -72.8931 1303.74 -59.3796M-27.4636 545.972C-16.9526 509.467 22.7874 474.868 60.6747 472.533C98.5642 470.198 141.725 494.364 176.447 479.008C208.089 465.014 216.332 403.118 249.967 395.009C284.807 386.608 336.888 435.839 372.331 430.519C422.856 422.937 454.731 373.164 476.821 327.061C498.913 280.955 522.221 229.223 569.259 209.265C604.764 194.2 645.825 201.424 682.084 214.559C718.348 227.694 752.734 246.507 790.37 254.917C828.009 263.324 871.512 259.273 898.823 232.025C937.151 193.784 930.357 111.165 979.5 88.4831C1025.44 67.2836 1075.01 113.709 1129.51 102.551C1170.5 94.1592 1176.3 -2.12695 1215.18 -38.6563C1236.95 -59.108 1281.3 -60.0384 1308 -46.6718M-8.99039 552.374C1.40944 516.256 40.7268 482.026 78.2116 479.713C115.696 477.405 158.401 501.316 192.752 486.122C224.058 472.274 232.214 411.04 265.491 403.015C299.96 394.704 351.489 443.407 386.552 438.147C436.541 430.645 468.076 381.404 489.93 335.791C511.786 290.177 534.847 238.995 581.384 219.251C616.511 204.348 657.137 211.494 693.011 224.488C728.886 237.483 762.907 256.099 800.145 264.417C837.381 272.737 880.426 268.728 907.444 241.768C945.365 203.937 938.639 122.195 987.262 99.7529C1032.71 78.7782 1081.76 124.712 1135.68 113.672C1176.22 105.369 1181.97 10.1066 1220.44 -26.0332C1241.97 -46.269 1285.85 -47.1883 1312.27 -33.9619M9.4829 558.775C19.7693 523.047 58.6663 489.182 95.7463 486.899C132.828 484.615 175.073 508.265 209.055 493.238C240.025 479.542 248.094 418.962 281.01 411.024C315.112 402.802 366.086 450.984 400.773 445.777C450.223 438.356 481.42 389.644 503.039 344.523C524.661 299.401 547.474 248.764 593.51 229.234C628.259 214.492 668.446 221.559 703.936 234.414C739.426 247.268 773.085 265.683 809.918 273.912C846.755 282.142 889.333 278.177 916.065 251.509C953.576 214.085 946.924 133.219 995.024 111.02C1039.98 90.2705 1088.5 135.713 1141.84 124.792C1181.96 116.579 1187.64 22.3402 1225.69 -13.4101C1247 -33.4277 1290.4 -34.3381 1316.54 -21.252M27.9584 565.177C38.1336 529.839 76.608 496.341 113.285 494.082C149.963 491.822 191.749 515.217 225.361 500.352C255.994 486.803 263.974 426.884 296.534 419.033C330.263 410.899 380.685 458.558 414.994 453.408C463.906 446.069 494.765 397.887 516.15 353.253C537.534 308.621 560.1 258.538 605.636 239.219C640.007 224.635 679.756 231.627 714.861 244.344C749.966 257.06 783.256 275.273 819.691 283.413C856.128 291.555 898.245 287.633 924.683 261.254C961.79 224.232 955.209 144.251 1002.78 122.292C1047.26 101.767 1095.25 146.715 1148.01 135.911C1187.69 127.786 1193.31 34.5738 1230.94 -0.789178C1252.02 -20.5909 1294.95 -21.4901 1320.8 -8.54647M46.4316 571.579C56.4956 536.628 94.5453 503.499 130.82 501.265C167.095 499.03 208.421 522.168 241.664 507.466C271.961 494.066 279.854 434.803 312.054 427.039C345.411 418.997 395.279 466.131 429.212 461.036C477.586 453.777 508.105 406.125 529.254 361.983C550.407 317.841 572.724 268.308 617.759 249.2C651.752 234.779 691.067 241.692 725.783 254.267C760.501 266.843 793.426 284.855 829.461 292.906C865.498 300.957 907.153 297.078 933.299 270.988C969.997 234.376 963.487 155.271 1010.54 133.556C1054.52 113.257 1101.99 157.709 1154.17 147.024C1193.41 138.991 1198.97 46.8007 1236.19 11.8295C1257.03 -7.75407 1299.5 -8.64445 1325.06 4.15676M64.9049 577.978C74.8577 543.417 112.485 510.656 148.355 508.448C184.227 506.24 225.095 529.117 257.969 514.58C287.929 501.329 295.732 442.728 327.578 435.048C360.566 427.095 409.878 473.703 443.433 468.668C491.271 461.488 521.45 414.365 542.365 370.713C563.28 327.063 585.35 278.084 629.887 259.186C663.502 244.924 702.379 251.76 736.712 264.199C771.045 276.635 803.602 294.447 839.238 302.409C874.875 310.371 916.065 306.535 941.924 280.735C978.212 244.528 971.776 166.303 1018.31 144.828C1061.8 124.752 1108.74 168.712 1160.34 158.147C1199.14 150.201 1204.64 59.0366 1241.45 24.4526C1262.07 5.08721 1304.05 4.20574 1329.34 16.8667M83.3804 584.382C93.2197 550.206 130.424 517.817 165.894 515.628C201.361 513.445 241.769 536.067 274.274 521.692C303.896 508.59 311.614 450.647 343.1 443.055C375.716 435.191 424.475 481.276 457.654 476.299C504.954 469.203 534.794 422.608 555.474 379.445C576.153 336.282 597.974 287.853 642.008 269.169C675.247 255.068 713.688 261.828 747.635 274.126C781.581 286.424 813.775 304.036 849.009 311.907C884.245 319.78 924.972 315.987 950.538 290.478C986.421 254.678 980.056 177.333 1026.07 156.097C1069.07 136.249 1115.48 179.714 1166.5 169.268C1204.87 161.413 1210.31 71.2724 1246.7 37.0758C1267.08 17.9263 1308.6 17.0559 1333.6 29.5722M101.854 590.784C111.582 556.997 148.364 524.975 183.429 522.814C218.498 520.652 258.445 543.018 290.581 528.806C319.867 515.855 327.498 458.567 358.626 451.059C390.871 443.286 439.076 488.851 471.877 483.927C518.641 476.911 548.141 430.846 568.587 388.175C589.031 345.504 610.607 297.621 654.139 279.152C686.999 265.209 725.002 271.894 758.564 284.052C792.125 296.209 823.952 313.621 858.788 321.4C893.621 329.186 933.889 325.436 959.165 300.214C994.637 264.824 988.347 188.355 1033.83 167.36C1076.35 147.739 1122.23 190.71 1172.67 180.382C1210.6 172.616 1215.98 83.4993 1251.96 49.6922C1272.11 30.7609 1313.16 29.8994 1337.87 42.2755M120.329 597.186C129.946 563.788 166.303 532.131 200.968 529.994C235.63 527.86 275.119 549.97 306.885 535.92C335.836 523.116 343.376 466.492 374.148 459.07C406.022 451.384 453.673 496.423 486.098 491.557C532.321 484.622 561.485 439.088 581.693 396.907C601.904 354.729 623.23 307.397 666.262 289.138C698.745 275.357 736.312 281.964 769.486 293.981C802.663 305.999 834.125 323.21 868.558 330.905C902.991 338.597 942.796 334.891 967.781 309.961C1002.85 274.976 996.628 199.387 1041.59 178.637C1083.62 159.238 1128.97 201.715 1178.83 191.507C1216.33 183.828 1221.65 95.7374 1257.21 62.3176C1277.13 43.6066 1317.7 42.7541 1342.14 54.9877M138.802 603.587C148.306 570.579 184.243 539.29 218.502 537.18C252.76 535.07 291.793 556.921 323.188 543.036C351.801 530.382 359.256 474.414 389.668 467.079C421.172 459.482 468.269 503.998 500.316 499.19C546.003 492.334 574.828 447.326 594.802 405.64C614.777 363.951 635.854 317.169 678.388 299.121C710.495 285.501 747.623 292.029 780.413 303.907C813.201 315.784 844.298 332.797 878.331 340.4C912.364 348.006 951.703 344.342 976.4 319.702C1011.06 285.122 1004.91 210.412 1049.35 189.902C1090.89 170.73 1135.72 212.713 1185 202.623C1222.06 195.035 1227.31 107.969 1262.47 74.9385C1282.15 56.4434 1322.25 55.5997 1346.4 67.6909M157.278 609.989C166.67 577.368 202.184 546.448 236.044 544.365C269.899 542.277 308.469 563.873 339.497 550.152C367.774 537.647 375.14 482.336 405.194 475.088C436.329 467.578 482.871 511.573 514.542 506.821C559.69 500.045 588.174 455.569 607.915 414.37C627.654 373.17 648.485 326.943 690.518 309.109C722.247 295.646 758.94 302.101 791.342 313.836C823.745 325.574 854.475 342.386 888.108 349.901C921.743 357.415 960.62 353.794 985.025 329.444C1019.27 295.272 1013.2 221.441 1057.12 201.174C1098.17 182.227 1142.47 223.718 1191.17 213.744C1227.79 206.245 1232.98 120.202 1267.72 87.5616C1287.18 69.2847 1326.81 68.4522 1350.67 80.4008M175.751 616.391C185.032 584.16 220.122 553.607 253.576 551.546C287.029 549.485 325.143 570.822 355.8 557.264C383.741 544.906 391.018 490.255 420.716 483.095C451.48 475.678 497.467 519.143 528.76 514.449C573.373 507.753 601.519 463.807 621.022 423.1C640.529 382.39 661.111 336.71 702.641 319.09C733.992 305.788 770.247 312.165 802.265 323.764C834.283 335.361 864.648 351.973 897.881 359.399C931.111 366.824 969.527 363.247 993.643 339.185C1027.48 305.42 1021.48 232.468 1064.87 212.442C1105.44 193.722 1149.21 234.719 1197.33 224.862C1233.52 217.455 1238.65 132.436 1272.98 100.183C1292.2 82.1238 1331.36 81.3024 1354.94 93.1064M194.224 622.795C203.392 590.949 238.061 560.768 271.111 558.731C304.161 556.694 341.815 577.776 372.102 564.38C399.705 552.174 406.898 498.18 436.234 491.103C466.626 483.776 512.062 526.72 542.979 522.079C587.051 515.466 614.857 472.047 634.128 431.83C653.398 391.614 673.733 346.482 714.765 329.075C745.738 315.933 781.556 322.233 813.187 333.692C844.818 345.148 874.819 361.562 907.649 368.894C940.485 376.231 978.435 372.696 1002.26 348.926C1035.69 315.57 1029.76 243.495 1072.64 223.707C1112.71 205.212 1155.95 245.715 1203.49 235.981C1239.25 228.66 1244.32 144.667 1278.23 112.801C1297.22 94.9583 1335.91 94.1481 1359.2 105.81M212.7 629.197C221.756 597.74 256.003 567.926 288.648 565.912C321.295 563.902 358.489 584.723 388.407 571.494C415.674 559.434 422.776 506.099 451.758 499.11C481.779 491.871 526.661 534.293 557.197 529.71C600.734 523.174 628.201 480.288 647.237 440.56C666.273 400.832 686.357 356.253 726.888 339.056C757.483 326.075 792.864 332.298 824.112 343.617C855.358 354.936 884.99 371.145 917.421 378.392C949.853 385.638 987.342 382.147 1010.88 358.668C1043.9 325.716 1038.05 254.523 1080.4 234.977C1119.98 216.707 1162.7 256.717 1209.66 247.099C1244.98 239.869 1249.98 156.899 1283.48 125.424C1302.24 107.8 1340.45 106.998 1363.46 118.517M231.173 635.598C240.116 604.531 273.94 575.08 306.187 573.097C338.432 571.109 375.167 591.677 404.714 578.611C431.645 566.7 438.662 514.021 467.286 507.121C496.936 499.971 541.264 541.867 571.425 537.342C614.423 530.889 641.55 488.53 660.35 449.294C679.151 410.056 698.989 366.027 739.021 349.044C769.237 336.222 804.182 342.368 835.043 353.547C865.905 364.725 895.169 380.736 927.203 387.895C959.234 395.051 996.261 391.601 1019.5 368.411C1052.12 335.868 1046.34 265.552 1088.16 246.249C1127.26 228.206 1169.45 267.72 1215.83 258.222C1250.71 251.079 1255.65 169.132 1288.74 138.047C1307.27 120.641 1345.01 119.848 1367.74 131.227M249.646 642C258.48 611.323 291.879 582.241 323.722 580.28C355.562 578.317 391.839 598.626 421.017 585.722C447.612 573.961 454.538 521.943 482.804 515.125C512.086 508.065 555.858 549.438 585.641 544.968C628.103 538.598 654.892 496.768 673.457 458.02C692.021 419.271 711.611 375.797 751.144 359.022C780.983 346.361 815.491 352.431 845.966 363.47C876.44 374.51 905.34 390.321 936.973 397.386C968.604 404.453 1005.17 401.05 1028.12 378.147C1060.33 346.01 1054.62 276.572 1095.92 257.512C1134.53 239.694 1176.19 278.712 1221.99 269.336C1256.44 262.282 1261.32 181.361 1293.99 150.664C1312.29 133.475 1349.56 132.694 1372 143.931" stroke="black" stroke-opacity="0.1" stroke-width="0.35" stroke-miterlimit="10"/>
</svg>
