<svg width="12" height="15" viewBox="0 0 12 15" fill="none" xmlns="http://www.w3.org/2000/svg">
<path fill-rule="evenodd" clip-rule="evenodd" d="M5.25 0C4.65326 0 4.08097 0.237053 3.65901 0.65901C3.23705 1.08097 3 1.65326 3 2.25V12.75C3 13.3467 3.23705 13.919 3.65901 14.341C4.08097 14.7629 4.65326 15 5.25 15H9.75C10.3467 15 10.919 14.7629 11.341 14.341C11.7629 13.919 12 13.3467 12 12.75V2.25C12 1.65326 11.7629 1.08097 11.341 0.65901C10.919 0.237053 10.3467 0 9.75 0H5.25ZM6.21975 4.71975C6.3604 4.57915 6.55113 4.50016 6.75 4.50016C6.94887 4.50016 7.1396 4.57915 7.28025 4.71975L9.53025 6.96975C9.67085 7.1104 9.74984 7.30113 9.74984 7.5C9.74984 7.69887 9.67085 7.8896 9.53025 8.03025L7.28025 10.2802C7.1388 10.4169 6.94935 10.4925 6.7527 10.4908C6.55605 10.489 6.36794 10.4102 6.22889 10.2711C6.08983 10.1321 6.01095 9.94395 6.00924 9.7473C6.00754 9.55065 6.08313 9.3612 6.21975 9.21975L7.1895 8.25H0.75C0.551088 8.25 0.360322 8.17098 0.21967 8.03033C0.0790178 7.88968 0 7.69891 0 7.5C0 7.30109 0.0790178 7.11032 0.21967 6.96967C0.360322 6.82902 0.551088 6.75 0.75 6.75H7.1895L6.21975 5.78025C6.07915 5.6396 6.00016 5.44887 6.00016 5.25C6.00016 5.05113 6.07915 4.8604 6.21975 4.71975Z" fill="white"/>
</svg>
