<svg width="55" height="55" viewBox="0 0 55 55" fill="none" xmlns="http://www.w3.org/2000/svg">
<circle cx="27.5" cy="27.5" r="27.5" fill="#ECECEC"/>
<path d="M37.0969 35.3038L31.7172 32.5974C31.2098 32.3418 30.8944 31.8284 30.8944 31.2572V29.3413C31.0234 29.1826 31.1591 29.0019 31.2993 28.8024C31.9971 27.8107 32.5563 26.7069 32.9628 25.5163C33.7574 25.1497 34.2733 24.3592 34.2733 23.4667V21.2C34.2733 20.6543 34.0706 20.1256 33.7101 19.7125V16.6984C33.7417 16.3867 33.8656 14.5315 32.532 13.0009C31.3753 11.6732 29.4984 11 26.9524 11C24.4064 11 22.5294 11.6732 21.3727 13.0003C20.0392 14.5309 20.1631 16.3867 20.1946 16.6984V19.7125C19.8342 20.1256 19.6315 20.6543 19.6315 21.2V23.4667C19.6315 24.1563 19.9429 24.7995 20.4745 25.2284C20.9903 27.2837 22.0699 28.8324 22.4472 29.3294V31.2045C22.4472 31.753 22.1499 32.2562 21.6718 32.5192L16.6479 35.2766C15.0142 36.1736 14 37.8929 14 39.7651V41.6C14 44.2894 22.4725 45 26.9524 45C31.4322 45 39.9048 44.2894 39.9048 41.6V39.8756C39.9048 37.9274 38.8286 36.1753 37.0969 35.3038Z" fill="#C4C4C4"/>
</svg>
